<svg id="Layer_1" data-name="Layer 1" xmlns="http://www.w3.org/2000/svg" viewBox="0 0 122.88 118.23"><defs><style>.cls-1{fill-rule:evenodd;}</style></defs><title>data-scientist</title><path class="cls-1" d="M79.69,98.37c3.42,10.06,17.72,10.44,20.94,0,7.91,7.12,20.46,1.8,22.25,16.11-.21,2.25-1.48,3.55-4,3.75H61.43c-2.52-.2-3.79-1.5-4-3.75,1.7-13.61,14.77-9.37,22.26-16.11ZM6.1,40.31H94.84V7.1a.89.89,0,0,0-.3-.7.91.91,0,0,0-.7-.3H7.1a.89.89,0,0,0-.7.3.77.77,0,0,0-.3.7V40.31Zm88.74,5.12H6.1v65.9a.91.91,0,0,0,.3.7.89.89,0,0,0,.7.3l36.58-.1h0a3,3,0,0,1,0,6H7.1a7.12,7.12,0,0,1-5-2.1,6.94,6.94,0,0,1-2.1-5V7.1a6.94,6.94,0,0,1,2.1-5A6.94,6.94,0,0,1,7.1,0H93.74a7.12,7.12,0,0,1,5,2.1,6.94,6.94,0,0,1,2.1,5V49.88a3,3,0,0,1-6,0V45.43ZM32.7,14.77h6.37a.38.38,0,0,1,.4.4V37.44a.38.38,0,0,1-.4.4H32.7a.38.38,0,0,1-.41-.4V15.17a.38.38,0,0,1,.41-.4Zm14.53,8.46h6.38a.38.38,0,0,1,.4.4V37.36a.38.38,0,0,1-.4.4H47.23a.38.38,0,0,1-.4-.4V23.63a.43.43,0,0,1,.4-.4Zm29.08,0h6.37a.38.38,0,0,1,.41.4V37.36a.38.38,0,0,1-.41.4H76.31a.38.38,0,0,1-.4-.4V23.63a.43.43,0,0,1,.4-.4ZM61.77,14.77h6.37a.38.38,0,0,1,.41.4V37.44a.38.38,0,0,1-.41.4H61.77a.38.38,0,0,1-.4-.4V15.17a.38.38,0,0,1,.4-.4Zm-43.6,3.06h6.37a.38.38,0,0,1,.41.41v19.2a.38.38,0,0,1-.41.4H18.17a.38.38,0,0,1-.4-.4V18.24c-.08-.25.16-.41.4-.41Zm21.6,64,17.14.3a18.36,18.36,0,0,1-8.06,15.23L39.77,81.78Zm-.94-5.24-.2-20V55.26l1.31.1h0a24.09,24.09,0,0,1,4.74.81A22.68,22.68,0,0,1,61.22,77l.1,1.31H60l-19.86-.6H39l-.2-1.21Zm2.42-1.21,17.45.5A20.64,20.64,0,0,0,47.9,59.9a22,22,0,0,0-5.81-2c-.34-.06-.69-.12-1-.15l.2,17.55ZM34,80l9.78,17A19.56,19.56,0,0,1,14.46,80,19.56,19.56,0,0,1,33.22,60.43L34,80Zm42.71-.08a2.54,2.54,0,0,0-1.21.38,1.08,1.08,0,0,0-.42.48,1.77,1.77,0,0,0-.14.79,8.06,8.06,0,0,0,1.54,3.69l3.24,5.15a27.38,27.38,0,0,0,4.33,5.68,8.68,8.68,0,0,0,6.1,2.46A9,9,0,0,0,96.64,96a29,29,0,0,0,4.45-6.07l3.64-6c.74-1.68,1-2.71.72-3.21-.14-.28-.64-.38-1.45-.34a3.62,3.62,0,0,1-2-.06l1.47-4.15c-6.67-.08-11.23-1.24-16.62-4.69-1.78-1.13-2.31-2.43-4.08-2.3A6,6,0,0,0,79.42,71a8.64,8.64,0,0,0-1.93,3.79l1.08,5.18a3.52,3.52,0,0,1-1.84,0Zm29-1.49a2.54,2.54,0,0,1,1.65,1.34c.54,1.1.32,2.73-.7,5.06h0l-.06.13L102.9,91a30.17,30.17,0,0,1-4.82,6.53,11,11,0,0,1-7.93,3.14,10.73,10.73,0,0,1-7.53-3,28.65,28.65,0,0,1-4.7-6.11l-3.23-5.15a9.53,9.53,0,0,1-1.86-4.77,3.87,3.87,0,0,1,.33-1.76,3.34,3.34,0,0,1,1.18-1.36,4.23,4.23,0,0,1,.85-.43,57.79,57.79,0,0,1-.13-7.58,12.91,12.91,0,0,1,.39-2.1,12.46,12.46,0,0,1,5.47-7,15.2,15.2,0,0,1,3-1.43c6.22-2.25,14.46-1,18.87,3.75a12.56,12.56,0,0,1,3.17,7.94l-.21,6.73Z"/></svg>